<mxfile host="app.diagrams.net" modified="2023-07-26T08:46:14.123Z" agent="Mozilla/5.0 (Windows NT 10.0; Win64; x64) AppleWebKit/537.36 (KHTML, like Gecko) Chrome/114.0.0.0 Safari/537.36 Edg/114.0.1823.67" etag="GzxI6nNHymDEsQac40bN" version="21.6.5" type="github">
  <diagram name="Page-1" id="2YBvvXClWsGukQMizWep">
    <mxGraphModel dx="1967" dy="632" grid="1" gridSize="10" guides="1" tooltips="1" connect="1" arrows="1" fold="1" page="1" pageScale="1" pageWidth="850" pageHeight="1100" math="0" shadow="0">
      <root>
        <mxCell id="0" />
        <mxCell id="1" parent="0" />
        <mxCell id="YLmckLfuBf1xcfasJF5o-2" value="Camera_handler" style="shape=umlLifeline;perimeter=lifelinePerimeter;whiteSpace=wrap;html=1;container=0;dropTarget=0;collapsible=0;recursiveResize=0;outlineConnect=0;portConstraint=eastwest;newEdgeStyle={&quot;edgeStyle&quot;:&quot;elbowEdgeStyle&quot;,&quot;elbow&quot;:&quot;vertical&quot;,&quot;curved&quot;:0,&quot;rounded&quot;:0};" vertex="1" parent="1">
          <mxGeometry x="-496" y="30" width="100" height="280" as="geometry" />
        </mxCell>
        <mxCell id="YLmckLfuBf1xcfasJF5o-3" value="Encoder" style="shape=umlLifeline;perimeter=lifelinePerimeter;whiteSpace=wrap;html=1;container=0;dropTarget=0;collapsible=0;recursiveResize=0;outlineConnect=0;portConstraint=eastwest;newEdgeStyle={&quot;edgeStyle&quot;:&quot;elbowEdgeStyle&quot;,&quot;elbow&quot;:&quot;vertical&quot;,&quot;curved&quot;:0,&quot;rounded&quot;:0};" vertex="1" parent="1">
          <mxGeometry x="-356" y="30" width="100" height="280" as="geometry" />
        </mxCell>
        <mxCell id="YLmckLfuBf1xcfasJF5o-4" value="emit Capture()" style="html=1;verticalAlign=bottom;endArrow=block;edgeStyle=elbowEdgeStyle;elbow=vertical;curved=0;rounded=0;" edge="1" parent="1">
          <mxGeometry relative="1" as="geometry">
            <mxPoint x="-438" y="120" as="sourcePoint" />
            <Array as="points">
              <mxPoint x="-359" y="120" />
            </Array>
            <mxPoint x="-314" y="120" as="targetPoint" />
          </mxGeometry>
        </mxCell>
        <mxCell id="YLmckLfuBf1xcfasJF5o-5" value="uvc_thread" style="rounded=0;whiteSpace=wrap;html=1;" vertex="1" parent="1">
          <mxGeometry x="-47" y="30" width="100" height="40" as="geometry" />
        </mxCell>
        <mxCell id="YLmckLfuBf1xcfasJF5o-8" value="" style="rounded=1;whiteSpace=wrap;html=1;rotation=90;" vertex="1" parent="1">
          <mxGeometry x="-389.04" y="188.03" width="166.08" height="10" as="geometry" />
        </mxCell>
        <mxCell id="YLmckLfuBf1xcfasJF5o-9" value="Actor" style="shape=umlActor;verticalLabelPosition=bottom;verticalAlign=top;html=1;outlineConnect=0;" vertex="1" parent="1">
          <mxGeometry x="-596" y="50" width="30" height="60" as="geometry" />
        </mxCell>
        <mxCell id="YLmckLfuBf1xcfasJF5o-10" value="" style="rounded=1;whiteSpace=wrap;html=1;rotation=90;" vertex="1" parent="1">
          <mxGeometry x="-532.78" y="181.79" width="173.58" height="10" as="geometry" />
        </mxCell>
        <mxCell id="YLmckLfuBf1xcfasJF5o-11" value="" style="endArrow=classic;html=1;rounded=0;" edge="1" parent="1">
          <mxGeometry width="50" height="50" relative="1" as="geometry">
            <mxPoint x="-560" y="110" as="sourcePoint" />
            <mxPoint x="-450.5" y="110" as="targetPoint" />
          </mxGeometry>
        </mxCell>
        <mxCell id="YLmckLfuBf1xcfasJF5o-12" value="Hit Capture" style="edgeLabel;html=1;align=center;verticalAlign=middle;resizable=0;points=[];" vertex="1" connectable="0" parent="YLmckLfuBf1xcfasJF5o-11">
          <mxGeometry x="-0.1598" y="-1" relative="1" as="geometry">
            <mxPoint y="-11" as="offset" />
          </mxGeometry>
        </mxCell>
        <mxCell id="YLmckLfuBf1xcfasJF5o-17" value="Image folder" style="rounded=0;whiteSpace=wrap;html=1;" vertex="1" parent="1">
          <mxGeometry x="130" y="30" width="100" height="40" as="geometry" />
        </mxCell>
        <mxCell id="YLmckLfuBf1xcfasJF5o-19" value="" style="endArrow=none;dashed=1;html=1;rounded=0;entryX=0.5;entryY=1;entryDx=0;entryDy=0;" edge="1" parent="1">
          <mxGeometry width="50" height="50" relative="1" as="geometry">
            <mxPoint x="180" y="310" as="sourcePoint" />
            <mxPoint x="179.41000000000008" y="70.94" as="targetPoint" />
          </mxGeometry>
        </mxCell>
        <mxCell id="YLmckLfuBf1xcfasJF5o-20" value="" style="endArrow=classic;html=1;rounded=0;" edge="1" parent="1">
          <mxGeometry width="50" height="50" relative="1" as="geometry">
            <mxPoint x="-293.79" y="150" as="sourcePoint" />
            <mxPoint x="-163.79" y="150" as="targetPoint" />
          </mxGeometry>
        </mxCell>
        <mxCell id="YLmckLfuBf1xcfasJF5o-21" value="get Time" style="edgeLabel;html=1;align=center;verticalAlign=middle;resizable=0;points=[];" vertex="1" connectable="0" parent="YLmckLfuBf1xcfasJF5o-20">
          <mxGeometry x="-0.3013" y="-2" relative="1" as="geometry">
            <mxPoint x="15" y="-12" as="offset" />
          </mxGeometry>
        </mxCell>
        <mxCell id="YLmckLfuBf1xcfasJF5o-24" value="Time.h" style="shape=umlLifeline;perimeter=lifelinePerimeter;whiteSpace=wrap;html=1;container=0;dropTarget=0;collapsible=0;recursiveResize=0;outlineConnect=0;portConstraint=eastwest;newEdgeStyle={&quot;edgeStyle&quot;:&quot;elbowEdgeStyle&quot;,&quot;elbow&quot;:&quot;vertical&quot;,&quot;curved&quot;:0,&quot;rounded&quot;:0};" vertex="1" parent="1">
          <mxGeometry x="-207.28" y="30" width="100" height="280" as="geometry" />
        </mxCell>
        <mxCell id="YLmckLfuBf1xcfasJF5o-25" value="" style="rounded=1;whiteSpace=wrap;html=1;rotation=90;" vertex="1" parent="1">
          <mxGeometry x="-365.8" y="194.18" width="131.62" height="10.12" as="geometry" />
        </mxCell>
        <mxCell id="YLmckLfuBf1xcfasJF5o-26" value="" style="rounded=1;whiteSpace=wrap;html=1;rotation=90;" vertex="1" parent="1">
          <mxGeometry x="-179.32999999999998" y="160.14" width="42.52" height="10.12" as="geometry" />
        </mxCell>
        <mxCell id="YLmckLfuBf1xcfasJF5o-28" value="" style="endArrow=classic;html=1;rounded=0;dashed=1;" edge="1" parent="1">
          <mxGeometry width="50" height="50" relative="1" as="geometry">
            <mxPoint x="-164.80999999999997" y="181.15" as="sourcePoint" />
            <mxPoint x="-294.7861904761906" y="181.14999999999998" as="targetPoint" />
          </mxGeometry>
        </mxCell>
        <mxCell id="YLmckLfuBf1xcfasJF5o-29" value="real Time" style="edgeLabel;html=1;align=center;verticalAlign=middle;resizable=0;points=[];" vertex="1" connectable="0" parent="YLmckLfuBf1xcfasJF5o-28">
          <mxGeometry x="-0.3013" y="-2" relative="1" as="geometry">
            <mxPoint x="-21" y="-9" as="offset" />
          </mxGeometry>
        </mxCell>
        <mxCell id="YLmckLfuBf1xcfasJF5o-30" value="" style="endArrow=classic;html=1;rounded=0;" edge="1" parent="1">
          <mxGeometry width="50" height="50" relative="1" as="geometry">
            <mxPoint x="-292.77" y="200" as="sourcePoint" />
            <mxPoint x="-292.77" y="225" as="targetPoint" />
            <Array as="points">
              <mxPoint x="-276.77" y="200" />
              <mxPoint x="-276.77" y="225" />
            </Array>
          </mxGeometry>
        </mxCell>
        <mxCell id="YLmckLfuBf1xcfasJF5o-31" value="set ImageName" style="edgeLabel;html=1;align=center;verticalAlign=middle;resizable=0;points=[];" vertex="1" connectable="0" parent="YLmckLfuBf1xcfasJF5o-30">
          <mxGeometry x="-0.0643" y="-1" relative="1" as="geometry">
            <mxPoint x="38" as="offset" />
          </mxGeometry>
        </mxCell>
        <mxCell id="YLmckLfuBf1xcfasJF5o-33" value="" style="endArrow=none;dashed=1;html=1;rounded=0;entryX=0.5;entryY=1;entryDx=0;entryDy=0;" edge="1" parent="1">
          <mxGeometry width="50" height="50" relative="1" as="geometry">
            <mxPoint x="3" y="310" as="sourcePoint" />
            <mxPoint x="2.990000000000066" y="70.94" as="targetPoint" />
          </mxGeometry>
        </mxCell>
        <mxCell id="YLmckLfuBf1xcfasJF5o-34" value="" style="rounded=1;whiteSpace=wrap;html=1;rotation=90;" vertex="1" parent="1">
          <mxGeometry x="-85.09" y="178.8" width="176.16" height="10" as="geometry" />
        </mxCell>
        <mxCell id="YLmckLfuBf1xcfasJF5o-64" value="emit WriteImage(ImageName)" style="html=1;verticalAlign=bottom;endArrow=block;edgeStyle=elbowEdgeStyle;elbow=vertical;curved=0;rounded=0;" edge="1" parent="1">
          <mxGeometry relative="1" as="geometry">
            <mxPoint x="-296" y="250" as="sourcePoint" />
            <Array as="points">
              <mxPoint x="-200" y="250" />
            </Array>
            <mxPoint y="250" as="targetPoint" />
          </mxGeometry>
        </mxCell>
        <mxCell id="YLmckLfuBf1xcfasJF5o-65" value="save Thumbnail" style="html=1;verticalAlign=bottom;endArrow=block;edgeStyle=elbowEdgeStyle;elbow=vertical;curved=0;rounded=0;" edge="1" parent="1">
          <mxGeometry relative="1" as="geometry">
            <mxPoint x="9" y="260" as="sourcePoint" />
            <Array as="points">
              <mxPoint x="105" y="260" />
            </Array>
            <mxPoint x="180" y="260" as="targetPoint" />
          </mxGeometry>
        </mxCell>
        <mxCell id="YLmckLfuBf1xcfasJF5o-78" value="Capture SLOT" style="text;html=1;strokeColor=none;fillColor=none;align=center;verticalAlign=middle;whiteSpace=wrap;rounded=0;rotation=-90;" vertex="1" parent="1">
          <mxGeometry x="-380" y="184.24" width="84" height="30" as="geometry" />
        </mxCell>
      </root>
    </mxGraphModel>
  </diagram>
</mxfile>
